<?xml version="1.0" encoding="utf-8"?>
<svg xmlns="http://www.w3.org/2000/svg" viewBox="-150 -400 1000 1000">
    <defs>
        <!-- Neon glow filter for green elements -->
        <filter id="neonGlow" x="-50%" y="-50%" width="200%" height="200%">
            <feGaussianBlur stdDeviation="3" result="blur1"/>
            <feGaussianBlur stdDeviation="6" result="blur2"/>
            <feGaussianBlur stdDeviation="10" result="blur3"/>
            <feMerge>
                <feMergeNode in="blur3"/>
                <feMergeNode in="blur2"/>
                <feMergeNode in="blur1"/>
                <feMergeNode in="SourceGraphic"/>
            </feMerge>
        </filter>
        
        <!-- Mask for letter A hole -->
        <mask id="maskA">
            <rect x="600" y="300" width="300" height="300" fill="white"/>
            <path d="M 725.008 424.98 C 727.008 425.98 727.008 425.98 727.738 427.739 C 727.96 428.496 728.181 429.252 728.41 430.031 C 728.659 430.87 728.908 431.708 729.165 432.572 C 729.423 433.47 729.68 434.368 729.945 435.293 C 730.21 436.2 730.475 437.108 730.748 438.043 C 736.204 456.874 736.204 456.874 736.008 462.98 C 731.319 462.424 727.808 461.098 723.633 458.918 C 722.573 458.37 721.513 457.822 720.422 457.258 C 719.625 456.836 718.828 456.415 718.008 455.98 C 718.661 449.099 720.273 442.645 722.07 435.98 C 722.352 434.919 722.633 433.858 722.924 432.765 C 723.614 430.169 724.308 427.574 725.008 424.98 Z" fill="black"/>
        </mask>
        
        <!-- Mask for registered symbol hole -->
        <mask id="maskR">
            <rect x="755" y="330" width="50" height="50" fill="white"/>
            <path d="M 767.008 343.98 C 769.318 343.98 771.628 343.98 774.008 343.98 C 773.678 345.63 773.348 347.28 773.008 348.98 C 771.028 348.98 769.048 348.98 767.008 348.98 C 767.008 347.33 767.008 345.68 767.008 343.98 Z" fill="black"/>
        </mask>
    </defs>
    
    <!-- Door and dark elements -->
    <path d="M 486.008 -356.02 C 466.301 -346.87 446.592 -337.72 426.82 -328.71 C 416.192 -323.86 405.585 -318.98 395.008 -314.02 C 383.705 -308.73 372.367 -303.51 361.01 -298.34 C 348.82 -292.78 336.659 -287.16 324.508 -281.52 C 306.041 -272.95 287.535 -264.46 269.008 -256.02 C 268.9 -234.97 268.944 -213.94 269.445 -192.9 C 269.961 -170.79 270.26 -148.69 270.508 -126.58 C 270.518 -125.67 270.528 -124.76 270.539 -123.82 C 270.965 -85.763 271.27 -47.701 271.569 -9.639 C 271.839 24.69 272.175 59.018 272.603 93.345 C 272.979 123.559 273.142 153.764 273.008 183.98 C 274.018 184.122 274.018 184.122 275.049 184.266 C 278.743 185.158 281.962 186.727 285.343 188.41 C 286.051 188.756 286.758 189.102 287.486 189.458 C 289.788 190.586 292.085 191.72 294.383 192.855 C 295.981 193.64 297.58 194.423 299.18 195.206 C 301.575 196.379 303.97 197.551 306.364 198.726 C 312.518 201.746 318.692 204.722 324.883 207.668 C 333.437 211.745 341.975 215.856 350.508 219.98 C 361.107 225.103 371.72 230.199 382.343 235.273 C 391.519 239.656 400.684 244.062 409.85 248.464 C 412.989 249.971 416.127 251.478 419.265 252.984 C 420.295 253.479 421.325 253.973 422.386 254.482 C 424.47 255.482 426.554 256.482 428.639 257.482 C 433.812 259.964 438.984 262.45 444.152 264.945 C 459.701 272.443 475.334 279.748 491.008 286.98 C 487.916 287.957 485.892 287.958 482.75 287.211 C 481.911 287.016 481.071 286.821 480.206 286.621 C 479.298 286.4 478.389 286.18 477.453 285.953 C 476.497 285.729 475.54 285.505 474.555 285.275 C 472.491 284.791 470.428 284.304 468.366 283.813 C 462.891 282.509 457.408 281.236 451.926 279.961 C 450.822 279.703 449.718 279.446 448.581 279.181 C 438.897 276.933 429.182 274.861 419.445 272.855 C 406.841 270.251 394.29 267.473 381.758 264.543 C 365.294 260.694 348.782 257.105 332.244 253.589 C 331.39 253.408 330.536 253.226 329.656 253.039 C 328.396 252.771 328.396 252.771 327.111 252.498 C 318.96 250.763 310.825 248.962 302.693 247.141 C 297.007 245.868 291.319 244.61 285.625 243.375 C 274.283 240.915 262.945 238.446 251.64 235.816 C 250.831 235.628 250.021 235.44 249.187 235.246 C 245.32 234.346 241.453 233.442 237.589 232.528 C 219.786 228.365 201.915 224.75 184.008 220.98 C 184.008 51.03 184.008 -118.92 184.008 -294.02 C 197.208 -296.66 210.408 -299.3 224.008 -302.02 C 234.011 -304.32 234.011 -304.32 244.004 -306.66 C 251.371 -308.37 258.797 -309.74 266.23 -311.13 C 273.651 -312.54 281.019 -314.1 288.383 -315.77 C 300.453 -318.51 312.566 -321 324.695 -323.46 C 337.488 -326.05 350.265 -328.69 363.008 -331.52 C 375.731 -334.34 388.486 -336.99 401.258 -339.58 C 440.993 -346.88 440.993 -346.88 480.09 -356.66 C 482.357 -357.09 483.808 -356.63 486.008 -356.02 Z" style="fill: #ffffff;"/>
    <path d="M 495.383 348.043 C 501.987 352.917 505.989 359.911 510.133 366.855 C 515.57 375.8 521.354 384.383 527.484 392.863 C 530.21 396.651 532.886 400.475 535.57 404.293 C 536.55 405.685 537.53 407.077 538.511 408.469 C 538.946 409.086 539.381 409.703 539.828 410.338 C 540.802 411.695 541.819 413.02 542.847 414.336 C 544.008 415.98 544.008 415.98 544.008 417.98 C 549.47 413.981 552.556 409.505 556.008 403.73 C 556.562 402.822 557.115 401.914 557.686 400.979 C 562.067 393.729 566.169 386.334 570.258 378.918 C 585.865 350.694 585.865 350.694 597.008 346.98 C 604.267 346.04 609.113 346.899 615.133 351.082 C 619.848 355.856 620.352 360.615 620.37 367.023 C 620.351 368.606 620.351 368.606 620.332 370.22 C 620.331 371.345 620.33 372.469 620.329 373.628 C 620.322 377.349 620.293 381.069 620.265 384.789 C 620.257 387.393 620.251 389.998 620.245 392.602 C 620.231 398.772 620.202 404.942 620.167 411.112 C 620.102 422.749 620.064 434.385 620.029 446.022 C 620.016 449.81 619.994 453.597 619.971 457.385 C 619.905 471.155 620.179 484.853 620.894 498.605 C 621.177 504.54 621.27 510.477 621.32 516.418 C 621.349 517.63 621.378 518.843 621.408 520.092 C 621.464 528.01 620.793 533.934 615.254 539.855 C 609.045 543.717 603.023 544.128 595.926 542.504 C 591.479 540.895 588.283 538.068 586.008 533.98 C 582.815 524.873 582.895 514.432 582.508 504.883 C 582.447 503.471 582.447 503.471 582.385 502.031 C 582.256 498.994 582.132 495.956 582.008 492.918 C 581.92 490.819 581.832 488.721 581.744 486.623 C 581.033 469.412 580.46 452.199 580.008 434.98 C 578.388 437.93 576.79 440.892 575.195 443.855 C 574.517 445.089 574.517 445.089 573.826 446.347 C 571.129 451.387 569.14 456.227 567.701 461.764 C 566.083 466.934 563.405 470.131 558.82 472.918 C 552.66 474.635 546.851 475.119 540.883 472.48 C 531.473 466.845 525.781 457.664 519.945 448.668 C 519.174 447.496 518.403 446.325 517.631 445.154 C 513.016 438.143 508.493 431.075 504.008 423.98 C 503.879 438.411 504.198 452.77 504.864 467.185 C 505.549 482.292 506.227 497.413 506.362 512.537 C 506.382 514.475 506.421 516.413 506.461 518.351 C 506.479 526.405 505.458 532.803 500.226 539.137 C 499.659 539.58 499.092 540.023 498.508 540.48 C 497.94 540.944 497.373 541.408 496.789 541.887 C 492.121 544.753 486.295 544.669 481.008 543.98 C 475.474 541.906 471.231 539.008 468.008 533.98 C 467.389 533.052 467.389 533.052 466.758 532.105 C 465.306 527.991 465.648 524.059 467.008 519.98 C 467.268 515.216 467.2 510.439 467.195 505.668 C 467.195 504.916 467.196 504.165 467.196 503.39 C 467.186 486.246 466.631 469.114 466.07 451.98 C 466.048 451.31 466.026 450.64 466.004 449.95 C 465.585 437.118 465.159 424.289 464.461 411.469 C 463.952 401.952 463.754 392.442 463.712 382.912 C 463.701 381.059 463.68 379.206 463.651 377.354 C 463.608 374.619 463.592 371.884 463.582 369.148 C 463.564 368.328 463.547 367.509 463.529 366.664 C 463.55 360.963 464.738 357.675 468.008 352.98 C 470.261 351.238 470.261 351.238 472.57 350.105 C 473.334 349.716 474.099 349.327 474.886 348.926 C 481.332 346.053 488.672 345.93 495.383 348.043 Z" style="fill: #ffffff;"/>
    <path d="M 86.519 344.969 C 92.164 348.339 94.855 352.438 97.57 358.355 C 99.853 363.01 102.413 367.074 105.508 371.23 C 118.08 388.214 127.622 407.542 137.49 426.18 C 139.277 429.478 141.137 432.729 143.008 435.98 C 143.018 435.277 143.028 434.573 143.039 433.848 C 143.138 427.142 143.24 420.437 143.347 413.731 C 143.402 410.286 143.455 406.84 143.505 403.395 C 144.206 355.368 144.206 355.368 149.656 349.078 C 154.846 344.425 159.258 343.569 166.148 343.633 C 171.85 344.326 175.48 347.412 179.383 351.418 C 182.628 356.535 183.264 361.176 183.195 367.168 C 183.189 368.378 183.182 369.589 183.176 370.836 C 183.091 373.927 182.822 376.971 182.508 380.047 C 181.856 386.939 181.811 393.812 181.82 400.73 C 181.82 401.465 181.82 402.199 181.82 402.956 C 181.802 466.537 181.802 466.537 187.386 529.765 C 187.701 533.664 187.66 536.052 185.363 539.32 C 180.393 544.419 176.499 547.255 169.258 547.48 C 163.85 547.375 160.722 546.392 156.683 542.805 C 152.574 538.332 150.183 533.715 148.242 527.98 C 145.967 521.624 143.063 515.68 140.008 509.668 C 139.434 508.531 138.861 507.395 138.27 506.223 C 133.774 497.362 129.071 488.628 124.269 479.93 C 119.913 472.023 115.692 464.044 111.461 456.07 C 106.364 446.454 106.364 446.454 101.008 436.98 C 99.488 442.877 98.728 448.305 98.828 454.387 C 98.835 455.567 98.835 455.567 98.842 456.77 C 98.853 458.461 98.868 460.152 98.888 461.843 C 98.918 464.526 98.935 467.209 98.948 469.892 C 98.987 477.516 99.053 485.139 99.124 492.762 C 99.167 497.44 99.195 502.119 99.214 506.798 C 99.225 508.571 99.241 510.345 99.264 512.118 C 99.521 532.46 99.521 532.46 94.359 539.101 C 88.494 543.573 84.07 545.534 76.57 545.355 C 71.463 544.608 67.804 542.023 64.437 538.195 C 60.513 532.914 59.866 528.943 59.954 522.579 C 59.96 521.826 59.967 521.072 59.973 520.295 C 59.996 517.781 60.027 515.267 60.058 512.754 C 60.078 510.973 60.097 509.192 60.115 507.411 C 60.157 503.647 60.202 499.882 60.249 496.117 C 60.297 492.344 60.339 488.571 60.374 484.797 C 60.606 460.32 61.353 435.926 62.682 411.485 C 64.059 389.878 64.059 389.878 59.918 368.851 C 58.27 363.655 57.878 358.858 59.89 353.73 C 62.056 349.83 64.695 346.609 68.793 344.609 C 74.54 342.977 80.921 342.766 86.519 344.969 Z" style="fill: #ffffff;"/>
    <path d="M -60.543 329.004 C -57.864 330.638 -55.615 332.276 -53.532 334.633 C -50.588 337.21 -46.692 336.194 -42.992 335.98 C -41.46 335.82 -39.928 335.651 -38.397 335.475 C -32.784 334.902 -27.217 334.819 -21.578 334.812 C -20.524 334.809 -19.469 334.806 -18.383 334.802 C -16.169 334.797 -13.956 334.795 -11.742 334.795 C -8.37 334.793 -4.998 334.775 -1.625 334.756 C 0.536 334.753 2.698 334.751 4.859 334.75 C 6.358 334.739 6.358 334.739 7.887 334.728 C 14.808 334.751 21.336 334.774 26.883 339.355 C 30.473 343.79 31.3 346.669 31.32 352.418 C 31.337 353.53 31.354 354.643 31.371 355.789 C 30.835 360.499 28.785 363.073 25.758 366.605 C 16.112 374.103 -1.076 372.458 -12.617 372.543 C -29.066 372.013 -29.066 372.013 -44.992 374.98 C -47.334 377.977 -48.36 380.407 -48.504 384.187 C -48.54 384.938 -48.575 385.689 -48.612 386.463 C -48.634 387.232 -48.657 388.001 -48.68 388.793 C -48.714 389.581 -48.748 390.369 -48.783 391.181 C -48.865 393.114 -48.931 395.047 -48.992 396.98 C -47.859 396.634 -47.859 396.634 -46.703 396.281 C -35.586 392.988 -24.323 390.424 -12.992 387.98 C -12.119 387.788 -11.246 387.596 -10.346 387.398 C -1.554 385.534 8.783 383.979 17.258 387.797 C 21.258 390.502 25.159 394.374 26.676 399.031 C 27.741 405.287 26.989 409.065 23.406 414.191 C 16.765 422.688 4.678 423.097 -5.346 425.073 C -15.551 427.087 -25.654 429.223 -35.617 432.23 C -36.841 432.599 -36.841 432.599 -38.09 432.976 C -41.412 434.019 -44.078 435.037 -46.992 436.98 C -48.495 440.703 -48.284 444.914 -48.457 448.883 C -48.495 449.665 -48.533 450.448 -48.571 451.254 C -48.652 452.935 -48.731 454.617 -48.809 456.299 C -49.013 460.703 -49.23 465.108 -49.449 469.512 C -49.493 470.395 -49.538 471.279 -49.583 472.189 C -50.206 484.465 -51.081 496.723 -51.992 508.98 C -39.592 506.63 -27.197 504.253 -14.805 501.855 C -13.813 501.663 -13.813 501.663 -12.8 501.468 C -10.871 501.095 -8.941 500.721 -7.012 500.347 C -5.801 500.115 -4.591 499.882 -3.344 499.642 C -1.299 499.238 0.742 498.818 2.777 498.367 C 8.817 497.037 14.578 496.645 20.758 496.668 C 21.664 496.652 22.57 496.636 23.504 496.619 C 28.734 496.615 32.553 496.933 37.008 499.98 C 38.652 501.953 38.652 501.953 39.82 504.043 C 40.218 504.735 40.617 505.427 41.027 506.14 C 43.159 510.142 43.577 513.475 43.008 517.98 C 41.207 523.401 38.76 526.729 34.008 529.98 C 25.795 533.052 17.077 534.364 8.438 535.634 C -11.871 538.704 -32.021 543.232 -52.055 547.73 C -53.943 548.152 -53.943 548.152 -55.868 548.583 C -61.123 549.78 -66.302 551.032 -71.442 552.656 C -78.465 554.83 -85.801 555.492 -92.555 552.293 C -99.74 545.48 -99.74 545.48 -100.22 540.726 C -100.4 533.611 -99.06 528.549 -96.18 522.105 C -85.26 495.646 -87.458 464.039 -86.714 435.882 C -86.562 430.155 -86.394 424.43 -86.189 418.705 C -85.989 413.126 -85.83 407.546 -85.699 401.964 C -85.642 399.85 -85.572 397.736 -85.486 395.623 C -84.428 382.617 -84.428 382.617 -89.891 371.431 C -90.607 370.85 -91.323 370.27 -92.06 369.671 C -94.839 367.239 -95.85 364.555 -96.18 360.91 C -95.096 349.029 -86.569 337.43 -78.242 329.293 C -72.548 326.993 -66.288 326.603 -60.543 329.004 Z" style="fill: #ffffff;"/>
    
    <!-- Letter A with mask for transparent hole -->
    <g mask="url(#maskA)">
        <path d="M 730.383 330.605 C 736.547 334.266 738.905 338.128 740.91 344.863 C 741.256 346.022 741.602 347.181 741.959 348.376 C 743.609 354.048 745.221 359.731 746.82 365.418 C 749.153 373.649 751.545 381.845 754.195 389.98 C 759.343 405.833 763.935 421.861 768.623 437.855 C 770.08 442.826 771.544 447.796 773.019 452.762 C 792.281 517.615 792.281 517.615 786.82 532.105 C 784.092 536.432 780.687 539.015 776.008 540.98 C 769.807 541.702 764.272 541.615 759.008 537.98 C 752.42 532.291 751.534 526.092 750.152 517.863 C 749.246 512.184 749.246 512.184 747.008 506.98 C 744.694 505.44 742.625 504.269 740.133 503.105 C 739.093 502.601 739.093 502.601 738.032 502.087 C 729.305 497.989 720.159 494.975 711.008 491.98 C 710.018 491.65 709.028 491.32 708.008 490.98 C 707.777 491.938 707.546 492.896 707.308 493.883 C 697.799 532.899 697.799 532.899 690.008 538.98 C 684.272 541.708 678.086 541.954 671.914 540.48 C 666.618 538.436 663.001 535.204 660.695 530.043 C 659.068 522.796 660.971 517.175 663.195 510.293 C 666.455 499.928 669.341 489.511 672.008 478.98 C 670.801 478.472 669.594 477.965 668.351 477.441 C 648.593 468.989 648.593 468.989 644.844 463.176 C 642.71 457.572 643.148 450.951 645.508 445.543 C 651.442 439.46 658.438 436.063 667.008 435.668 C 672.805 435.825 677.614 438.29 682.008 441.98 C 684.122 436.636 685.734 431.463 686.91 425.844 C 687.072 425.09 687.235 424.337 687.403 423.561 C 687.923 421.14 688.435 418.717 688.945 416.293 C 689.303 414.611 689.662 412.929 690.02 411.247 C 693.391 395.377 696.449 379.482 699.133 363.48 C 699.304 362.462 699.476 361.443 699.654 360.393 C 700.35 356.209 701.032 352.038 701.492 347.82 C 702.286 340.902 703.439 336.448 709.008 331.98 C 715.174 327.534 723.545 327.51 730.383 330.605 Z" style="fill: #ffffff;"/>
    </g>
    
    <path d="M 391.461 365.699 C 394.966 368.602 398.721 372.225 399.211 376.933 C 399.315 382.066 398.989 385.608 396.008 389.98 C 390.92 394.847 386.77 397.098 379.758 397.293 C 371.77 397.957 366.42 400.985 361.133 406.98 C 350.691 421.055 344.16 437.07 340.008 453.98 C 339.743 454.979 339.479 455.978 339.207 457.008 C 337.889 462.826 337.754 468.724 337.633 474.668 C 337.606 475.465 337.58 476.261 337.553 477.082 C 337.534 484.126 339.499 489.198 344.226 494.441 C 344.979 495.073 345.732 495.705 346.508 496.355 C 347.26 497.002 348.013 497.65 348.789 498.316 C 355.462 503.321 362.985 502.716 371.008 501.98 C 381.314 500.377 392.722 497.806 400.008 489.98 C 402.113 489.367 402.113 489.367 404.008 488.98 C 404.035 487.251 404.054 485.522 404.07 483.793 C 404.082 482.83 404.093 481.867 404.105 480.875 C 404.012 478.125 403.629 475.655 403.008 472.98 C 400.379 473.431 398.127 473.925 395.695 475.043 C 390.343 476.91 385.825 476.623 380.758 474.293 C 376.27 471.807 373.643 468.886 372.008 463.98 C 371.226 458.499 371.464 454.087 374.383 449.293 C 382.099 439.147 394.911 433.815 407.164 431.344 C 415.492 430.28 421.267 430.407 428.621 434.789 C 436.411 441.942 438.258 449.7 439.695 459.918 C 439.896 461.241 440.099 462.565 440.303 463.888 C 449.479 524.442 449.479 524.442 444.008 536.98 C 439.132 541.856 433.951 544.747 427.07 545.293 C 421.759 545.133 418.359 543.112 414.32 539.73 C 411.647 536.551 410.45 533.851 409.008 529.98 C 403.086 530.436 398.08 531.857 392.523 533.945 C 373.551 539.531 350.277 539.761 332.383 530.918 C 316.276 521.623 305.881 507.172 299.898 489.75 C 298.838 485.261 298.664 481.137 298.695 476.543 C 298.701 475.661 298.706 474.779 298.712 473.871 C 298.862 465.653 300.006 457.964 302.008 449.98 C 302.201 449.191 302.394 448.401 302.593 447.588 C 309.746 418.999 322.565 388.011 348.008 370.98 C 352.235 368.659 356.512 366.721 361.008 364.98 C 361.68 364.713 362.353 364.447 363.047 364.172 C 371.269 361.545 383.989 361.071 391.461 365.699 Z" style="fill: #ffffff;"/>
    
    <!-- Green elements with neon glow -->
    <g filter="url(#neonGlow)" class="green-glow">
        <!-- Question mark / I -->
        <path d="M 275.008 339.98 C 276.03 340.319 277.052 340.658 278.105 341.008 C 289.421 345.111 299.389 353.047 304.961 363.824 C 306.508 367.144 307.008 369.261 307.008 372.98 C 307.668 372.98 308.328 372.98 309.008 372.98 C 309.56 389.282 307.005 402.546 297.008 415.98 C 295.362 417.667 293.695 419.335 292.008 420.98 C 291.409 421.764 290.811 422.548 290.195 423.355 C 288.258 425.68 286.362 427.465 284.07 429.418 C 280.607 432.373 277.847 435.431 275.008 438.98 C 274.077 439.825 274.077 439.825 273.129 440.687 C 270.372 443.667 268.676 446.893 266.82 450.48 C 266.287 451.476 266.287 451.476 265.744 452.492 C 262.99 457.728 261.909 461.576 261.761 467.445 C 261.712 469.016 261.712 469.016 261.662 470.619 C 261.601 472.814 261.543 475.009 261.49 477.205 C 261.456 478.254 261.422 479.302 261.386 480.383 C 261.349 481.813 261.349 481.813 261.311 483.273 C 260.738 488.388 258.978 491.71 255.008 494.98 C 250.965 496.256 246.897 496.201 242.695 496.23 C 241.594 496.261 241.594 496.261 240.47 496.293 C 235.236 496.33 231.638 495.467 227.008 492.98 C 222.195 487.028 221.835 482.298 221.883 474.855 C 221.889 473.716 221.889 473.716 221.895 472.553 C 221.98 463.994 222.227 456.821 226.008 448.98 C 226.616 447.357 227.22 445.732 227.82 444.105 C 230.751 436.761 235.195 430.619 240.437 424.746 C 241.574 423.468 242.68 422.162 243.765 420.84 C 249.36 414.107 249.36 414.107 254.008 412.98 C 254.008 412.32 254.008 411.66 254.008 410.98 C 255.652 409.292 257.321 407.627 259.008 405.98 C 259.998 404.495 259.998 404.495 261.008 402.98 C 261.668 402.98 262.328 402.98 263.008 402.98 C 263.111 402.423 263.214 401.867 263.32 401.293 C 264.138 398.54 265.534 396.437 267.008 393.98 C 268.326 390.133 268.301 386.132 268.383 382.105 C 268.42 381.41 268.457 380.716 268.496 380 C 268.561 376.13 268.112 373.606 265.722 370.621 C 261.405 366.421 257.083 363.796 250.945 363.605 C 245.188 364.154 240.373 365.045 236.008 368.98 C 234.414 371.676 234.414 371.676 233.07 374.73 C 226.505 388.253 226.505 388.253 218.765 391.336 C 213.253 392.624 207.627 392.268 202.008 391.98 C 202.008 391.32 202.008 390.66 202.008 389.98 C 199.698 389.32 197.388 388.66 195.008 387.98 C 195.008 387.32 195.008 386.66 195.008 385.98 C 194.348 385.98 193.688 385.98 193.008 385.98 C 190.503 382.224 190.679 380.443 191.008 375.98 C 193.752 366.025 198.063 357.79 206.008 350.98 C 206.998 350.65 207.988 350.32 209.008 349.98 C 209.008 349.32 209.008 348.66 209.008 347.98 C 230.357 336.885 251.56 331.11 275.008 339.98 Z" style="fill: #02f700;"/>
        
        <!-- Keyhole -->
        <path d="M 368.679 -88.891 C 375.599 -84.97 379.423 -80.59 382.008 -73.02 C 383.28 -63.37 382.076 -56.463 376.929 -48.215 C 374.915 -45.913 373.999 -45.324 371.008 -45.02 C 371.158 -44.346 371.308 -43.673 371.463 -42.979 C 372.095 -39.547 372.419 -36.149 372.726 -32.672 C 372.855 -31.248 372.984 -29.824 373.113 -28.401 C 373.311 -26.173 373.509 -23.946 373.705 -21.719 C 373.897 -19.557 374.093 -17.396 374.289 -15.235 C 374.403 -13.947 374.517 -12.659 374.634 -11.332 C 374.923 -8.768 375.345 -6.495 376.008 -4.02 C 376.074 -2.104 376.093 -0.186 376.07 1.73 C 376.061 2.715 376.052 3.7 376.043 4.715 C 376.031 5.462 376.019 6.21 376.008 6.98 C 368.589 6.49 361.206 5.829 353.82 4.98 C 353.078 4.897 352.335 4.814 351.57 4.729 C 346.248 4.101 346.248 4.101 344.008 2.98 C 343.861 -2.684 344.343 -7.787 345.445 -13.332 C 346.559 -19.225 347.412 -25.022 347.797 -31.016 C 348.008 -33.02 348.008 -33.02 349.008 -35.02 C 349.235 -36.89 349.417 -38.767 349.57 -40.645 C 349.654 -41.648 349.738 -42.651 349.824 -43.684 C 349.885 -44.455 349.945 -45.226 350.008 -46.02 C 349.018 -46.35 348.028 -46.68 347.008 -47.02 C 346.513 -48.505 346.513 -48.505 346.008 -50.02 C 345.348 -50.35 344.688 -50.68 344.008 -51.02 C 339.733 -59.897 339.946 -68.601 343.097 -77.863 C 345.392 -83.301 349.029 -86.054 354.008 -89.02 C 359.118 -90.723 363.639 -91.02 368.679 -88.891 Z" style="fill: #02f700;"/>
        
        <!-- Dot -->
        <path d="M 249.008 506.98 C 254.814 508.95 258.425 512.633 261.82 517.668 C 263.762 523.085 264.3 528.083 261.906 533.449 C 258.923 538.235 255.425 542.964 250.008 544.98 C 244.21 545.801 238.25 546.088 232.945 543.293 C 227.502 539.008 224.604 534.845 223.75 527.879 C 223.451 522.092 224.666 517.734 228.008 512.98 C 234.779 506.704 240.01 506.27 249.008 506.98 Z" style="fill: #02f700;"/>
    </g>
    
    <!-- Registered symbol outer circle with mask for hole -->
    <g mask="url(#maskR)">
        <path d="M 775.008 333.98 C 779.005 335.691 782.082 337.968 785.008 341.168 C 786.86 346.378 786.972 351.763 784.758 356.855 C 779.163 363.649 779.163 363.649 773.738 364.219 C 767.935 364.388 764.551 363.97 760.008 359.98 C 756.677 356.305 756.145 353.46 755.695 348.605 C 756.17 343.1 758.564 340.252 762.633 336.668 C 766.682 333.791 770.104 333.216 775.008 333.98 Z M 761.398 341.07 C 758.917 344.478 758.616 347.855 759.008 351.98 C 760.521 356.281 762.168 358.585 766.008 360.98 C 770.073 361.785 774.247 361.933 777.957 359.926 C 780.751 357.639 782.801 355.677 783.246 352.027 C 783.424 346.505 782.865 343.255 779.008 338.98 C 772.634 335.191 766.621 336.095 761.398 341.07 Z" style="fill: #ffffff;"/>
        <path d="M 765.008 341.98 C 771.844 341.785 771.844 341.785 774.008 341.98 C 776.008 343.98 776.008 343.98 776.258 346.48 C 776.008 348.98 776.008 348.98 774.008 350.98 C 774.503 351.599 774.998 352.218 775.508 352.855 C 777.008 354.98 777.008 354.98 777.008 356.98 C 776.348 356.98 775.688 356.98 775.008 356.98 C 774.389 356.011 773.77 355.042 773.133 354.043 C 771.357 350.875 771.357 350.875 768.758 350.105 C 767.891 350.043 767.891 350.043 767.008 349.98 C 767.008 352.29 767.008 354.6 767.008 356.98 C 766.348 356.98 765.688 356.98 765.008 356.98 C 765.008 352.03 765.008 347.08 765.008 341.98 Z" style="fill: #ffffff;"/>
        <path d="M 765.008 341.98 C 766.328 342.31 767.648 342.64 769.008 342.98 C 768.018 343.475 768.018 343.475 767.008 343.98 C 767.008 345.63 767.008 347.28 767.008 348.98 C 768.328 349.31 769.648 349.64 771.008 349.98 C 769.688 349.98 768.368 349.98 767.008 349.98 C 767.008 352.29 767.008 354.6 767.008 356.98 C 766.348 356.98 765.688 356.98 765.008 356.98 C 765.008 352.03 765.008 347.08 765.008 341.98 Z" style="fill: #ffffff;"/>
    </g>
    
    <!-- Small accent on question mark -->
    <path d="M 352.008 -88.02 C 352.668 -87.69 353.328 -87.36 354.008 -87.02 C 351.038 -84.05 348.068 -81.08 345.008 -78.02 C 344.678 -78.68 344.348 -79.34 344.008 -80.02 C 346.423 -83.212 348.688 -85.767 352.008 -88.02 Z" style="fill: #5eea5d;"/>
</svg>
