<?xml version="1.0" encoding="utf-8"?>
<svg xmlns="http://www.w3.org/2000/svg" viewBox="139.4065 17.8 221.1871 464.4" width="221.187px" height="464.4px">
  <g class="green-elements" transform="matrix(0.4838370382785797, 0, 0, 0.4838370382785797, 76.9544448852539, 188.842041015625)" style="">
    <g transform="matrix(1, 0, 0, 1, -4.463453, 6.997682)">
      <path d="M 583.245 -359.32 C 553.898 -345.68 524.554 -332.05 495.108 -318.63 C 479.282 -311.43 463.488 -304.16 447.737 -296.78 C 430.904 -288.9 414.025 -281.11 397.112 -273.42 C 378.959 -265.14 360.852 -256.77 342.757 -248.37 C 315.258 -235.59 287.701 -222.98 260.114 -210.39 C 259.952 -179.06 260.016 -147.72 260.762 -116.39 C 261.531 -83.495 261.978 -50.565 262.348 -17.663 C 262.36 -16.309 262.375 -14.956 262.393 -13.54 C 263.028 43.12 263.48 99.812 263.927 156.472 C 264.33 207.593 264.828 258.713 265.464 309.831 C 266.025 354.828 266.268 399.808 266.068 444.8 C 267.573 445.013 267.573 445.013 269.108 445.228 C 274.608 446.555 279.401 448.891 284.436 451.4 C 285.492 451.912 286.544 452.427 287.627 452.96 C 291.056 454.636 294.474 456.327 297.897 458.016 C 300.276 459.185 302.659 460.353 305.04 461.519 C 308.607 463.263 312.174 465.01 315.738 466.76 C 324.904 471.256 334.097 475.689 343.315 480.075 C 356.053 486.147 368.768 492.267 381.475 498.407 C 397.257 506.038 413.062 513.627 428.877 521.184 C 442.543 527.706 456.192 534.269 469.837 540.825 C 474.512 543.067 479.185 545.312 483.86 547.556 C 485.392 548.29 486.925 549.026 488.507 549.786 C 491.609 551.276 494.711 552.762 497.818 554.253 C 505.521 557.948 513.221 561.652 520.918 565.366 C 544.071 576.531 567.351 587.408 590.692 598.176 C 586.089 599.634 583.071 599.636 578.394 598.522 C 577.144 598.232 575.895 597.943 574.606 597.645 C 573.254 597.315 571.9 596.986 570.505 596.651 C 569.083 596.314 567.659 595.984 566.192 595.641 C 563.116 594.917 560.045 594.194 556.976 593.462 C 548.824 591.519 540.658 589.624 532.492 587.725 C 530.849 587.344 529.206 586.958 527.513 586.565 C 513.091 583.217 498.626 580.133 484.127 577.145 C 465.36 573.265 446.67 569.13 428.007 564.769 C 403.492 559.035 378.901 553.693 354.277 548.457 C 353.006 548.187 351.731 547.916 350.425 547.639 C 348.546 547.238 348.546 547.238 346.632 546.833 C 334.494 544.247 322.38 541.567 310.273 538.855 C 301.805 536.96 293.335 535.085 284.857 533.248 C 267.967 529.581 251.084 525.906 234.252 521.99 C 233.044 521.709 231.837 521.43 230.597 521.142 C 224.839 519.801 219.081 518.455 213.325 517.095 C 186.814 510.893 160.206 505.511 133.54 499.898 C 133.54 246.833 133.54 -6.246 133.54 -266.99 C 153.193 -270.93 172.851 -274.83 193.101 -278.9 C 207.999 -282.31 207.999 -282.31 222.878 -285.79 C 233.848 -288.35 244.906 -290.41 255.976 -292.47 C 267.025 -294.56 277.998 -296.9 288.962 -299.36 C 306.937 -303.46 324.974 -307.15 343.034 -310.81 C 362.086 -314.69 381.111 -318.6 400.088 -322.81 C 419.031 -327.03 438.027 -330.97 457.043 -334.82 C 516.216 -345.68 516.216 -345.68 574.432 -360.27 C 577.809 -360.89 579.969 -360.21 583.245 -359.32 Z" style="fill: rgb(33, 31, 32); stroke-width: 1;"/>
      <path d="M 408.533 38.471 C 418.838 44.31 424.532 50.832 428.381 62.105 C 430.275 76.474 428.482 86.76 420.818 99.042 C 417.819 102.47 416.455 103.347 412.001 103.799 C 412.224 104.803 412.448 105.805 412.679 106.839 C 413.62 111.949 414.102 117.009 414.559 122.187 C 414.751 124.307 414.944 126.428 415.136 128.547 C 415.431 131.864 415.725 135.18 416.017 138.497 C 416.303 141.716 416.595 144.934 416.887 148.152 C 417.057 150.07 417.226 151.988 417.401 153.964 C 417.831 157.782 418.459 161.167 419.447 164.852 C 419.545 167.705 419.573 170.561 419.539 173.414 C 419.526 174.881 419.512 176.348 419.499 177.859 C 419.481 178.972 419.463 180.086 419.447 181.232 C 408.399 180.503 397.405 179.518 386.407 178.254 C 385.302 178.13 384.195 178.007 383.056 177.88 C 375.131 176.945 375.131 176.945 371.796 175.276 C 371.577 166.842 372.294 159.243 373.935 150.986 C 375.594 142.21 376.864 133.578 377.438 124.653 C 377.752 121.668 377.752 121.668 379.241 118.69 C 379.579 115.906 379.85 113.111 380.078 110.314 C 380.203 108.82 380.328 107.327 380.456 105.789 C 380.547 104.641 380.636 103.493 380.73 102.31 C 379.256 101.819 377.782 101.327 376.263 100.821 C 375.526 98.61 375.526 98.61 374.774 96.354 C 373.791 95.862 372.808 95.371 371.796 94.865 C 365.43 81.646 365.747 68.685 370.439 54.893 C 373.856 46.795 379.272 42.696 386.687 38.279 C 394.296 35.743 401.028 35.301 408.533 38.471 Z" style="fill: rgb(2, 247, 0);"/>
    </g>
  </g>
</svg>